<?xml version="1.0" encoding="iso-8859-1"?>
<!-- Uploaded to: SVG Repo, www.svgrepo.com, Generator: SVG Repo Mixer Tools -->
<!DOCTYPE svg PUBLIC "-//W3C//DTD SVG 1.1//EN" "http://www.w3.org/Graphics/SVG/1.1/DTD/svg11.dtd">
<svg fill="#000000" height="800px" width="800px" version="1.1" id="Capa_1" xmlns="http://www.w3.org/2000/svg" xmlns:xlink="http://www.w3.org/1999/xlink" 
	 viewBox="0 0 470 470" xml:space="preserve">
<g>
	<path d="M382.265,185.488H210.159V57.502C210.159,25.795,184.364,0,152.657,0h-19.542c-31.707,0-57.502,25.795-57.502,57.502
		c0,1.449,0.061,2.885,0.167,4.311H50.836c-14.435,0-26.178,11.744-26.178,26.179s11.744,26.179,26.178,26.179h65.87l0.004,15.391
		L47.26,195.836c-14.576,13.912-22.603,32.639-22.603,52.729c0,86.234,79.852,156.391,178.002,156.391
		c6.881,0,13.7-0.352,20.437-1.027L230.618,455h-75.945c-4.142,0-7.5,3.357-7.5,7.5s3.358,7.5,7.5,7.5h95.972
		c4.143,0,7.5-3.357,7.5-7.5s-3.357-7.5-7.5-7.5h-4.865l-7.822-53.117c33.834-5.97,64.946-20.512,89.924-42.396
		c16.008-14.024,28.595-30.267,37.411-47.947c30.681-1.66,55.605-25.336,59.19-55.476h13.359c4.143,0,7.5-3.357,7.5-7.5
		C445.343,213.784,417.047,185.488,382.265,185.488z M202.659,389.955c-89.879,0-163.002-63.428-163.002-141.391
		c0-15.951,6.378-30.823,17.959-41.877l39.485-37.681h98.058v16.481h-6.39c-34.781,0-63.077,28.296-63.077,63.076
		c0,34.781,28.296,63.077,63.077,63.077h159.322C321.397,358.029,266.238,389.955,202.659,389.955z M154.552,99.17h-29.81
		c-14.765-2.943-26.469-13.339-31.48-26.856l19.386-15.407h11.563c4.142,0,7.5-3.357,7.5-7.5s-3.358-7.5-7.5-7.5h-14.18
		c-1.695,0-3.34,0.574-4.667,1.629L90.677,55.208C91.873,32.835,110.449,15,133.115,15h19.542c23.436,0,42.502,19.066,42.502,42.502
		v67.768h-63.451l-0.003-11.1h22.847c4.142,0,7.5-3.357,7.5-7.5S158.695,99.17,154.552,99.17z M39.657,87.991
		c0-6.164,5.015-11.179,11.178-11.179h28.108C81.98,85.352,86.977,93,93.453,99.17H50.836C44.672,99.17,39.657,94.155,39.657,87.991
		z M127.215,140.27h67.945v13.737h-82.34L127.215,140.27z M379.989,256.064h29.349c-3.082,19.589-18.036,35.279-37.24,39.467
		C376.595,282.861,379.27,269.624,379.989,256.064z M417.427,241.064H193.193c-4.142,0-7.5,3.357-7.5,7.499
		c0,4.143,3.358,7.501,7.5,7.501h171.77c-0.856,14.174-4.125,27.801-9.452,40.577H188.77c-23.959,0-43.876-17.617-47.488-40.577
		h21.911c4.142,0,7.5-3.357,7.5-7.5c0-4.143-3.358-7.5-7.5-7.5h-21.911c3.612-22.959,23.529-40.576,47.488-40.576h193.496
		c23.96,0,43.882,17.615,47.493,40.576H417.427z"/>
</g>
</svg>